<svg width="143" height="142" viewBox="0 0 143 142" fill="none" xmlns="http://www.w3.org/2000/svg">
<g filter="url(#filter0_dd_2_270)">
<path d="M11 24C11 17.4003 11 14.1005 13.0503 12.0503C15.1005 10 18.4003 10 25 10H115.7C122.3 10 125.599 10 127.65 12.0503C129.7 14.1005 129.7 17.4003 129.7 24V114.7C129.7 121.3 129.7 124.599 127.65 126.65C125.599 128.7 122.3 128.7 115.7 128.7H25C18.4003 128.7 15.1005 128.7 13.0503 126.65C11 124.599 11 121.3 11 114.7V24Z" fill="#6A6969"/>
</g>
<path d="M68.9375 80.875C70.3125 80.875 71.5833 80.5938 72.75 80.0312C73.9167 79.4688 74.875 78.6979 75.625 77.7188C76.375 76.7188 76.8021 75.5833 76.9062 74.3125H82.4062C82.3021 76.3125 81.625 78.1771 80.375 79.9062C79.1458 81.6146 77.5312 83 75.5312 84.0625C73.5312 85.1042 71.3333 85.625 68.9375 85.625C66.3958 85.625 64.1771 85.1771 62.2812 84.2812C60.4062 83.3854 58.8438 82.1562 57.5938 80.5938C56.3646 79.0312 55.4375 77.2396 54.8125 75.2188C54.2083 73.1771 53.9062 71.0208 53.9062 68.75V67.4375C53.9062 65.1667 54.2083 63.0208 54.8125 61C55.4375 58.9583 56.3646 57.1562 57.5938 55.5938C58.8438 54.0312 60.4062 52.8021 62.2812 51.9062C64.1771 51.0104 66.3958 50.5625 68.9375 50.5625C71.5833 50.5625 73.8958 51.1042 75.875 52.1875C77.8542 53.25 79.4062 54.7083 80.5312 56.5625C81.6771 58.3958 82.3021 60.4792 82.4062 62.8125H76.9062C76.8021 61.4167 76.4062 60.1562 75.7188 59.0312C75.0521 57.9062 74.1354 57.0104 72.9688 56.3438C71.8229 55.6562 70.4792 55.3125 68.9375 55.3125C67.1667 55.3125 65.6771 55.6667 64.4688 56.375C63.2812 57.0625 62.3333 58 61.625 59.1875C60.9375 60.3542 60.4375 61.6562 60.125 63.0938C59.8333 64.5104 59.6875 65.9583 59.6875 67.4375V68.75C59.6875 70.2292 59.8333 71.6875 60.125 73.125C60.4167 74.5625 60.9062 75.8646 61.5938 77.0312C62.3021 78.1979 63.25 79.1354 64.4375 79.8438C65.6458 80.5312 67.1458 80.875 68.9375 80.875Z" fill="#90DFD6"/>
<defs>
<filter id="filter0_dd_2_270" x="0" y="0" width="142.7" height="141.7" filterUnits="userSpaceOnUse" color-interpolation-filters="sRGB">
<feFlood flood-opacity="0" result="BackgroundImageFix"/>
<feColorMatrix in="SourceAlpha" type="matrix" values="0 0 0 0 0 0 0 0 0 0 0 0 0 0 0 0 0 0 127 0" result="hardAlpha"/>
<feMorphology radius="3" operator="dilate" in="SourceAlpha" result="effect1_dropShadow_2_270"/>
<feOffset dx="4" dy="4"/>
<feGaussianBlur stdDeviation="3"/>
<feComposite in2="hardAlpha" operator="out"/>
<feColorMatrix type="matrix" values="0 0 0 0 0.2875 0 0 0 0 0.2875 0 0 0 0 0.2875 0 0 0 0.75 0"/>
<feBlend mode="normal" in2="BackgroundImageFix" result="effect1_dropShadow_2_270"/>
<feColorMatrix in="SourceAlpha" type="matrix" values="0 0 0 0 0 0 0 0 0 0 0 0 0 0 0 0 0 0 127 0" result="hardAlpha"/>
<feOffset dx="-6" dy="-5"/>
<feGaussianBlur stdDeviation="2.5"/>
<feComposite in2="hardAlpha" operator="out"/>
<feColorMatrix type="matrix" values="0 0 0 0 0.5375 0 0 0 0 0.5375 0 0 0 0 0.5375 0 0 0 0.65 0"/>
<feBlend mode="normal" in2="effect1_dropShadow_2_270" result="effect2_dropShadow_2_270"/>
<feBlend mode="normal" in="SourceGraphic" in2="effect2_dropShadow_2_270" result="shape"/>
</filter>
</defs>
</svg>
